<?xml version="1.0" encoding="UTF-8"?>
<svg version="1.1" xmlns="http://www.w3.org/2000/svg" width="192" height="192">
<path d="M0 0 C1.06347656 0.38542969 2.12695312 0.77085937 3.22265625 1.16796875 C28.01053544 10.85122371 44.37451854 29.13372108 55 53 C63.85141868 74.41051125 63.74946679 101.43011257 55.1875 123 C52.59457768 129.00533615 49.59880589 134.54613952 46 140 C45.45859375 140.86109375 44.9171875 141.7221875 44.359375 142.609375 C41.33982424 147.32925532 41.33982424 147.32925532 40 149 C39.34 149 38.68 149 38 149 C37.67 149.99 37.34 150.98 37 152 C36.34 152 35.68 152 35 152 C34.7525 152.61875 34.505 153.2375 34.25 153.875 C32.79371361 156.35068687 31.62187494 156.95125002 29 158 C29 158.66 29 159.32 29 160 C26.82605158 161.6928786 24.66947333 163.23498756 22.375 164.75 C21.69856445 165.19738525 21.02212891 165.64477051 20.32519531 166.10571289 C13.87251317 170.26062164 7.26722888 173.47534581 0 176 C-1.13852417 176.39952881 -1.13852417 176.39952881 -2.30004883 176.80712891 C-10.54462702 179.40288704 -18.63632651 179.55264299 -27.1875 179.5 C-27.91889191 179.49890228 -28.65028381 179.49780457 -29.40383911 179.49667358 C-40.33732712 179.44948384 -49.96772038 178.70586312 -60 174 C-60.9384375 173.59265625 -61.876875 173.1853125 -62.84375 172.765625 C-68.59915032 170.09595136 -73.86323313 166.70694517 -79 163 C-79.79148438 162.43796875 -80.58296875 161.8759375 -81.3984375 161.296875 C-91.28681198 153.87279574 -99.71521282 144.22086855 -105 133 C-105.73476562 131.54013672 -105.73476562 131.54013672 -106.484375 130.05078125 C-112.85771215 116.97281961 -115.69717087 104.91719218 -115.57641602 90.44189453 C-115.56254787 88.13296948 -115.59677126 85.82811761 -115.63476562 83.51953125 C-115.74227947 62.39256821 -106.93904599 42.53322543 -94 26 C-93.34 26 -92.68 26 -92 26 C-91.75507812 25.41992188 -91.51015625 24.83984375 -91.2578125 24.2421875 C-88.85165329 19.95294716 -84.73081623 17.11910772 -81 14 C-80.3915625 13.47019531 -79.783125 12.94039062 -79.15625 12.39453125 C-58.03074248 -4.88576328 -25.26734637 -9.31221529 0 0 Z " fill="#242330" transform="translate(124,7)"/>
<path d="M0 0 C1.06347656 0.38542969 2.12695312 0.77085937 3.22265625 1.16796875 C28.01053544 10.85122371 44.37451854 29.13372108 55 53 C63.85141868 74.41051125 63.74946679 101.43011257 55.1875 123 C52.59457768 129.00533615 49.59880589 134.54613952 46 140 C45.45859375 140.86109375 44.9171875 141.7221875 44.359375 142.609375 C41.33982424 147.32925532 41.33982424 147.32925532 40 149 C39.34 149 38.68 149 38 149 C37.67 149.99 37.34 150.98 37 152 C36.34 152 35.68 152 35 152 C34.7525 152.61875 34.505 153.2375 34.25 153.875 C32.79371361 156.35068687 31.62187494 156.95125002 29 158 C29 158.66 29 159.32 29 160 C26.82605158 161.6928786 24.66947333 163.23498756 22.375 164.75 C21.69856445 165.19738525 21.02212891 165.64477051 20.32519531 166.10571289 C13.87251317 170.26062164 7.26722888 173.47534581 0 176 C-1.13852417 176.39952881 -1.13852417 176.39952881 -2.30004883 176.80712891 C-10.54462702 179.40288704 -18.63632651 179.55264299 -27.1875 179.5 C-27.91889191 179.49890228 -28.65028381 179.49780457 -29.40383911 179.49667358 C-40.33732712 179.44948384 -49.96772038 178.70586312 -60 174 C-60.9384375 173.59265625 -61.876875 173.1853125 -62.84375 172.765625 C-68.59915032 170.09595136 -73.86323313 166.70694517 -79 163 C-79.79148438 162.43796875 -80.58296875 161.8759375 -81.3984375 161.296875 C-91.28681198 153.87279574 -99.71521282 144.22086855 -105 133 C-105.73476562 131.54013672 -105.73476562 131.54013672 -106.484375 130.05078125 C-112.85771215 116.97281961 -115.69717087 104.91719218 -115.57641602 90.44189453 C-115.56254787 88.13296948 -115.59677126 85.82811761 -115.63476562 83.51953125 C-115.74227947 62.39256821 -106.93904599 42.53322543 -94 26 C-93.34 26 -92.68 26 -92 26 C-91.75507812 25.41992188 -91.51015625 24.83984375 -91.2578125 24.2421875 C-88.85165329 19.95294716 -84.73081623 17.11910772 -81 14 C-80.3915625 13.47019531 -79.783125 12.94039062 -79.15625 12.39453125 C-58.03074248 -4.88576328 -25.26734637 -9.31221529 0 0 Z M-83 21 C-83.93585938 21.84433594 -84.87171875 22.68867188 -85.8359375 23.55859375 C-99.63267646 36.58044737 -107.92676123 53.38369032 -111 72 C-111.18304688 73.07765625 -111.36609375 74.1553125 -111.5546875 75.265625 C-114.51491948 100.09002652 -109.5162843 123.65934068 -93.984375 143.5859375 C-93.32953125 144.38257813 -92.6746875 145.17921875 -92 146 C-91.38640625 146.77601563 -90.7728125 147.55203125 -90.140625 148.3515625 C-79.07732252 161.65495515 -62.8806534 171.30735707 -46 175 C-44.35 175 -42.7 175 -41 175 C-41 130.12 -41 85.24 -41 39 C-39.68 39 -38.36 39 -37 39 C-37 83.88 -37 128.76 -37 175 C-37.66 175.33 -38.32 175.66 -39 176 C-20.14920979 179.96858741 1.28794397 173.90035496 17.3125 163.75 C38.02285421 149.97119151 50.78023644 129.75134716 56.54638672 105.72314453 C57.40915481 100.54374984 57.22554372 95.2764072 57.24023438 90.03735352 C57.2498589 87.96783986 57.28088158 85.89935582 57.3125 83.83007812 C57.40498855 72.44877744 55.49535135 62.37285508 50.8125 52 C50.51134277 51.32630371 50.21018555 50.65260742 49.89990234 49.95849609 C39.63484221 27.71489634 21.75213082 11.95638352 -1.0078125 3.4609375 C-29.53655384 -6.264695 -61.07617983 0.63270483 -83 21 Z " fill="#E4CF73" transform="translate(124,7)"/>
<path d="M0 0 C1.32 0 2.64 0 4 0 C4 44.88 4 89.76 4 136 C7.78130986 136.94532747 10.41665553 137.05587927 14.26953125 136.9140625 C15.48833984 136.87023437 16.70714844 136.82640625 17.96289062 136.78125 C19.23326172 136.7296875 20.50363281 136.678125 21.8125 136.625 C23.07126953 136.58117187 24.33003906 136.53734375 25.62695312 136.4921875 C31.49472443 136.2694782 37.19095806 135.90063379 43 135 C36.9891244 141.0108756 26.05283769 140.46365002 18.10961914 140.51879883 C16.67723709 140.51512674 15.24485961 140.50881794 13.8125 140.5 C13.08110809 140.49890228 12.34971619 140.49780457 11.59616089 140.49667358 C0.66267288 140.44948384 -8.96772038 139.70586312 -19 135 C-19.9384375 134.59265625 -20.876875 134.1853125 -21.84375 133.765625 C-27.59915032 131.09595136 -32.86323313 127.70694517 -38 124 C-38.79148438 123.43796875 -39.58296875 122.8759375 -40.3984375 122.296875 C-50.28681198 114.87279574 -58.71521282 105.22086855 -64 94 C-64.48984375 93.02675781 -64.9796875 92.05351562 -65.484375 91.05078125 C-67.09860412 87.73841505 -68.57454084 84.39766978 -70 81 C-70.41894531 80.02289063 -70.83789062 79.04578125 -71.26953125 78.0390625 C-75.55324466 66.02044607 -75.35880699 51.57524482 -74 39 C-73.34 38.01 -72.68 37.02 -72 36 C-72.02679467 34.06872237 -72.05583178 32.13740565 -72.10400391 30.20654297 C-71.92438699 26.39579715 -70.57491373 23.08187337 -69.1875 19.5625 C-68.92646484 18.84384766 -68.66542969 18.12519531 -68.39648438 17.38476562 C-67.69469893 15.54972664 -66.85605378 13.76834466 -66 12 C-65.01 11.67 -64.02 11.34 -63 11 C-65 17 -65 17 -65.73046875 18.91015625 C-73.81726462 40.87175925 -71.92374471 66.83559571 -62.25 87.875 C-58.88861201 94.81656921 -54.88686082 101.01832311 -50 107 C-49.45988281 107.70253906 -48.91976562 108.40507812 -48.36328125 109.12890625 C-36.4037401 123.92630462 -18.28516783 132.34296643 0 136 C0 91.12 0 46.24 0 0 Z " fill="#E3CE71" transform="translate(83,46)"/>
<path d="M0 0 C2.08268593 -0.08126087 4.16628658 -0.13930839 6.25 -0.1875 C7.99023438 -0.23970703 7.99023438 -0.23970703 9.765625 -0.29296875 C13.2485996 0.02251808 14.59984129 0.50056466 17 3 C17.4375 5.9375 17.4375 5.9375 17 9 C16.484375 9.598125 15.96875 10.19625 15.4375 10.8125 C13.66956866 13.5028303 14.00868036 14.27710036 14.5 17.375 C15.15126782 21.82411048 14.75575295 24.26639923 12 28 C7.28593511 31.28888248 3.53479783 31.28628265 -2 31 C-2.0928125 31.8353125 -2.0928125 31.8353125 -2.1875 32.6875 C-3.41394017 36.17813739 -5.07256866 37.75771217 -8 40 C-11.53974351 40.74520916 -14.73609248 40.67145087 -18 38.9375 C-19.62897258 35.78136563 -19.48820905 33.47848951 -19 30 C-17.125 27.5625 -17.125 27.5625 -14 26 C-10.63770865 25.68687058 -7.36535935 25.76475158 -4 26 C-3.62875 24.081875 -3.62875 24.081875 -3.25 22.125 C-2.25186609 17.58672206 -0.70114552 13.44045915 1.09765625 9.1640625 C1.80364319 7.47091634 2.41989988 5.74030035 3 4 C1.68 4 0.36 4 -1 4 C-0.67 2.68 -0.34 1.36 0 0 Z " fill="#F0F0F0" transform="translate(39,75)"/>
<path d="M0 0 C0.99 0 1.98 0 3 0 C3 44.55 3 89.1 3 135 C2.01 135 1.02 135 0 135 C0 90.45 0 45.9 0 0 Z " fill="#F4F4F4" transform="translate(92,46)"/>
<path d="M0 0 C0.99 0 1.98 0 3 0 C3 44.55 3 89.1 3 135 C2.01 135 1.02 135 0 135 C0 90.45 0 45.9 0 0 Z " fill="#F5F5F6" transform="translate(84,46)"/>
<path d="M0 0 C0.33 0 0.66 0 1 0 C1 44.55 1 89.1 1 135 C5.69621164 136.56540388 9.27694487 137.09782977 14.26953125 136.9140625 C15.48833984 136.87023437 16.70714844 136.82640625 17.96289062 136.78125 C19.23326172 136.7296875 20.50363281 136.678125 21.8125 136.625 C23.7006543 136.55925781 23.7006543 136.55925781 25.62695312 136.4921875 C31.49472443 136.2694782 37.19095806 135.90063379 43 135 C36.9891244 141.0108756 26.05283769 140.46365002 18.10961914 140.51879883 C16.67723709 140.51512674 15.24485961 140.50881794 13.8125 140.5 C13.08110809 140.49890228 12.34971619 140.49780457 11.59616089 140.49667358 C0.66429321 140.44949084 -8.97030805 139.70781459 -19 135 C-20.03125 134.54625 -21.0625 134.0925 -22.125 133.625 C-28.72826087 130.54347826 -28.72826087 130.54347826 -30 128 C-13.42080638 132.00748607 -13.42080638 132.00748607 -6.89453125 134.38671875 C-4.64899914 135.11362296 -2.31442055 135.53711589 0 136 C0 91.12 0 46.24 0 0 Z " fill="#B3A883" transform="translate(83,46)"/>
<path d="M0 0 C1.75181351 0.09630388 3.50309636 0.21235725 5.25 0.375 C4.58758211 3.92579859 3.67518229 7.04957466 2.25 10.375 C3.57 10.705 4.89 11.035 6.25 11.375 C6.25 12.365 6.25 13.355 6.25 14.375 C3.95858714 14.42884521 1.66681812 14.46772087 -0.625 14.5 C-2.53925781 14.53480469 -2.53925781 14.53480469 -4.4921875 14.5703125 C-7.75 14.375 -7.75 14.375 -9.75 12.375 C-10.25296989 8.68655418 -9.79110819 6.48070677 -8.4375 3 C-5.23573729 -0.12730311 -4.32450931 0 0 0 Z " fill="#EFEFEF" transform="translate(135.75,85.625)"/>
<path d="M0 0 C2.875 0.5 2.875 0.5 4.75 1.625 C6.43791147 4.43818579 6.32651041 6.27492565 5.875 9.5 C4.375 12.375 4.375 12.375 1.875 14.5 C-1.07999819 15.11903124 -3.04132306 14.8978938 -6.125 14.5 C-8.47049674 10.98175489 -8.70491403 9.64224306 -8.125 5.5 C-5.60820873 2.09492945 -4.22095697 0.67535311 0 0 Z " fill="#EFEFF0" transform="translate(107.125,85.5)"/>
<path d="M0 0 C0.99 0.33 1.98 0.66 3 1 C3 1.66 3 2.32 3 3 C5.31 3 7.62 3 10 3 C10 4.32 10 5.64 10 7 C9.01 7 8.02 7 7 7 C6.34 8.98 5.68 10.96 5 13 C6.65 13 8.3 13 10 13 C10 14.32 10 15.64 10 17 C3.9453125 17.1953125 3.9453125 17.1953125 2 17 C1.34 16.34 0.68 15.68 0 15 C0 13.68 0 12.36 0 11 C-0.99 11 -1.98 11 -3 11 C-2.53199289 6.94393835 -2.12046792 3.53411321 0 0 Z " fill="#E3E3E5" transform="translate(59,83)"/>
<path d="M0 0 C2.875 0.4375 2.875 0.4375 4.875 2.4375 C5 5.5625 5 5.5625 4.875 8.4375 C3.885 8.9325 3.885 8.9325 2.875 9.4375 C3.865 9.7675 4.855 10.0975 5.875 10.4375 C5.875 11.7575 5.875 13.0775 5.875 14.4375 C4.08366022 14.49141993 2.29186101 14.53025571 0.5 14.5625 C-0.49773437 14.58570312 -1.49546875 14.60890625 -2.5234375 14.6328125 C-5.125 14.4375 -5.125 14.4375 -7.125 12.4375 C-7.58471969 8.3766427 -7.49321155 6.10311318 -5.5 2.5 C-3.125 0.4375 -3.125 0.4375 0 0 Z " fill="#EFEFF0" transform="translate(161.125,85.5625)"/>
<path d="M0 0 C0.66 0.33 1.32 0.66 2 1 C1.566875 1.391875 1.13375 1.78375 0.6875 2.1875 C-1.11698146 3.95473582 -1.11698146 3.95473582 -2.1875 6.375 C-7.13115796 13.53478049 -17.70576772 17.40784395 -25.9375 19.25 C-30.96877957 20.15041738 -35.90415216 20.19516013 -41 20 C-41 19.67 -41 19.34 -41 19 C-40.05640625 18.76925781 -39.1128125 18.53851563 -38.140625 18.30078125 C-24.33294645 14.8357502 -10.34408411 10.34408411 0 0 Z " fill="#E5D074" transform="translate(150,163)"/>
<path d="M0 0 C0.99 0 1.98 0 3 0 C3 1.65 3 3.3 3 5 C3.66 5 4.32 5 5 5 C4.6875 6.9375 4.6875 6.9375 4 9 C3.01 9.33 2.02 9.66 1 10 C-0.21869929 12.50447516 -0.21869929 12.50447516 -1 15 C0.32 15 1.64 15 3 15 C3 16.32 3 17.64 3 19 C0.03 19 -2.94 19 -6 19 C-5.54177532 15.53058454 -5.10868317 12.32604951 -4 9 C-4.66 9 -5.32 9 -6 9 C-5.6875 7.0625 -5.6875 7.0625 -5 5 C-4.01 4.67 -3.02 4.34 -2 4 C-0.79117904 1.99983534 -0.79117904 1.99983534 0 0 Z " fill="#EEEEEE" transform="translate(149,81)"/>
<path d="M0 0 C0.66 0.33 1.32 0.66 2 1 C1.360625 1.886875 0.72125 2.77375 0.0625 3.6875 C-2.09259252 6.70346294 -2.09259252 6.70346294 -2.44921875 9.37890625 C-3.0927224 12.44125339 -4.26472101 14.57421303 -5.875 17.25 C-6.38804688 18.12140625 -6.90109375 18.9928125 -7.4296875 19.890625 C-9 22 -9 22 -12 23 C-12.95953524 25.12550718 -12.95953524 25.12550718 -13.5625 27.6875 C-14.34167481 30.57864865 -15.12229878 33.32183891 -16.1875 36.125 C-16.93990564 38.78735841 -17.03594482 40.47534518 -16.9375 43.1875 C-17 47 -17 47 -18.5 49 C-19.2425 49.495 -19.2425 49.495 -20 50 C-20.22488021 44.22379111 -19.64624395 39.65031824 -17.8125 34.1875 C-17.58618896 33.49317871 -17.35987793 32.79885742 -17.12670898 32.08349609 C-13.27561066 20.5502103 -8.02089427 9.254878 0 0 Z " fill="#E8D480" transform="translate(29,35)"/>
<path d="M0 0 C9.57038077 7.73775467 17.87123197 16.66649861 23 28 C22.67 28.66 22.34 29.32 22 30 C17.98191947 28.4954324 16.58896343 26.21444709 14.375 22.625 C10.66027087 16.807594 6.49815271 11.738894 1.90625 6.59375 C0 4 0 4 0 0 Z " fill="#E4CD74" transform="translate(152,23)"/>
<path d="M0 0 C1.32 0 2.64 0 4 0 C4.33 1.32 4.66 2.64 5 4 C5.6496875 3.01 5.6496875 3.01 6.3125 2 C6.869375 1.34 7.42625 0.68 8 0 C8.99 0 9.98 0 11 0 C10.69723124 6.05537521 7.72245962 9.51483458 4 14 C2.35 13.67 0.7 13.34 -1 13 C-1.02708567 11.39592672 -1.04643483 9.7917215 -1.0625 8.1875 C-1.07410156 7.29417969 -1.08570312 6.40085937 -1.09765625 5.48046875 C-1 3 -1 3 0 0 Z " fill="#E8E8E9" transform="translate(115,86)"/>
<path d="M0 0 C0 3.28292448 -0.73807968 5.24613462 -1.875 8.3125 C-6.9874786 23.59554773 -6.23354838 39.07200076 -6 55 C-9.23988433 51.12858113 -9.36823836 48.15310734 -9.1875 43.25 C-9.17396484 42.55261719 -9.16042969 41.85523438 -9.14648438 41.13671875 C-9.1112945 39.42414459 -9.05749155 37.71197059 -9 36 C-9.33 36 -9.66 36 -10 36 C-10.25 28.375 -10.25 28.375 -8 25 C-8.02885576 23.06872521 -8.05978397 21.13742142 -8.10839844 19.20654297 C-7.9209179 15.39021625 -6.53404988 12.07857097 -5.125 8.5625 C-4.85558594 7.84384766 -4.58617187 7.12519531 -4.30859375 6.38476562 C-2.27757245 1.13878623 -2.27757245 1.13878623 0 0 Z " fill="#D3BC5E" transform="translate(19,57)"/>
<path d="M0 0 C2 1 2 1 3.125 3.375 C4 6 4 6 4 9 C5.32 9 6.64 9 8 9 C9.74129056 11.27615797 11.18420172 13.42084026 12.625 15.875 C15.44761223 20.70924059 15.44761223 20.70924059 19 25 C19.125 28.125 19.125 28.125 19 31 C10.60060498 23.38804826 4.26105894 13.45896284 0 3 C0 2.01 0 1.02 0 0 Z " fill="#E7D488" transform="translate(15,129)"/>
<path d="M0 0 C7.29521077 2.11177154 15.64290909 5.4755 21 11 C22.3125 14.25 22.3125 14.25 23 17 C19.60276902 15.45939525 16.83631192 13.44517658 13.875 11.1875 C8.83457952 7.46315163 3.70370629 4.57347269 -2 2 C-1.34 1.34 -0.68 0.68 0 0 Z " fill="#DCC66D" transform="translate(131,12)"/>
<path d="M0 0 C1.32 0.33 2.64 0.66 4 1 C3.01 3.97 2.02 6.94 1 10 C2.32 10 3.64 10 5 10 C5 11.32 5 12.64 5 14 C2.03 14 -0.94 14 -4 14 C-3.53328373 8.58609132 -2.75702189 4.79482068 0 0 Z " fill="#EAEAEB" transform="translate(75,86)"/>
<path d="M0 0 C0.33 0 0.66 0 1 0 C1.25909505 4.08199488 1.47660278 8.16525392 1.6875 12.25 C1.76033203 13.38953125 1.83316406 14.5290625 1.90820312 15.703125 C2.4408 26.73101326 0.60198029 36.42242079 -5 46 C-5.99 46.495 -5.99 46.495 -7 47 C-6.81824219 46.41734375 -6.63648438 45.8346875 -6.44921875 45.234375 C-5.609619 42.49598814 -4.80174536 39.74971722 -4 37 C-3.73703125 36.10216797 -3.4740625 35.20433594 -3.203125 34.27929688 C-1.14368881 26.71927475 -0.4739726 19.56527381 -0.3125 11.75 C-0.27833984 10.61175781 -0.24417969 9.47351563 -0.20898438 8.30078125 C-0.12760707 5.53395298 -0.05810893 2.7673977 0 0 Z " fill="#BFAB59" transform="translate(181,85)"/>
<path d="M0 0 C1.05638672 -0.00257812 2.11277344 -0.00515625 3.20117188 -0.0078125 C4.84762695 0.00378906 4.84762695 0.00378906 6.52734375 0.015625 C7.62884766 0.00789062 8.73035156 0.00015625 9.86523438 -0.0078125 C10.92033203 -0.00523438 11.97542969 -0.00265625 13.0625 0 C14.02679932 0.00225586 14.99109863 0.00451172 15.98461914 0.00683594 C18.46484375 0.265625 18.46484375 0.265625 21.46484375 2.265625 C18.38948165 3.16262417 15.63625856 3.39428519 12.4375 3.3984375 C11.00180664 3.40037109 11.00180664 3.40037109 9.53710938 3.40234375 C8.04727539 3.39654297 8.04727539 3.39654297 6.52734375 3.390625 C5.04331055 3.39642578 5.04331055 3.39642578 3.52929688 3.40234375 C2.57087891 3.40105469 1.61246094 3.39976563 0.625 3.3984375 C-0.24503662 3.39730957 -1.11507324 3.39618164 -2.01147461 3.39501953 C-4.60522159 3.2620326 -7.00481186 2.83700224 -9.53515625 2.265625 C-6.25880433 0.31770684 -3.78789736 0.00885097 0 0 Z " fill="#ECD678" transform="translate(90.53515625,2.734375)"/>
<path d="M0 0 C1.02574883 0.00424484 1.02574883 0.00424484 2.07221985 0.00857544 C4.2527529 0.01975566 6.4328727 0.04485559 8.61328125 0.0703125 C10.09309302 0.08034512 11.57291124 0.08947048 13.05273438 0.09765625 C16.67721725 0.11968769 20.30145891 0.15420248 23.92578125 0.1953125 C24.42078125 1.6803125 24.42078125 1.6803125 24.92578125 3.1953125 C24.10489014 3.17960205 23.28399902 3.1638916 22.43823242 3.14770508 C19.33881038 3.09601533 16.23961087 3.05869342 13.13989258 3.03051758 C11.16016889 3.0083378 9.18064461 2.97018253 7.20117188 2.93164062 C0.07484454 2.87751662 -6.11296483 3.33062826 -12.90893555 5.5456543 C-15.07421875 6.1953125 -15.07421875 6.1953125 -18.07421875 6.1953125 C-17.74421875 5.2053125 -17.41421875 4.2153125 -17.07421875 3.1953125 C-15.98109375 3.0715625 -14.88796875 2.9478125 -13.76171875 2.8203125 C-8.47650909 1.92451425 -5.64690332 -0.04609717 0 0 Z " fill="#D4BD5E" transform="translate(88.07421875,4.8046875)"/>
<path d="M0 0 C1.66611905 -0.042721 3.33382885 -0.04063832 5 0 C6 1 6 1 6.3125 3.875 C6 7 6 7 4.3125 8.875 C1.66729453 10.16185671 -0.09433826 10.24213848 -3 10 C-2.49287967 6.28111761 -1.88391785 3.26545761 0 0 Z " fill="#33333F" transform="translate(43,91)"/>
<path d="M0 0 C6.37617593 5.87279362 7.31097888 10.67735017 8 19 C7.34 19.33 6.68 19.66 6 20 C5.01761592 17.58459694 4.03899782 15.16778178 3.0625 12.75 C2.64581055 11.72712891 2.64581055 11.72712891 2.22070312 10.68359375 C-0.38871883 4.2071971 -0.38871883 4.2071971 -1 1 C-0.67 0.67 -0.34 0.34 0 0 Z " fill="#E2CB68" transform="translate(172,50)"/>
<path d="M0 0 C6.7747741 5.47747693 14.4585151 11.86770134 18 20 C14.51127585 18.83709195 13.90023136 17.86032391 11.8125 14.9375 C11.28269531 14.20402344 10.75289062 13.47054687 10.20703125 12.71484375 C9.60955078 11.86599609 9.60955078 11.86599609 9 11 C8.34 11.66 7.68 12.32 7 13 C5.82157218 11.59310148 4.65762602 10.17406375 3.5 8.75 C2.8503125 7.96109375 2.200625 7.1721875 1.53125 6.359375 C0 4 0 4 0 0 Z " fill="#ECDA8B" transform="translate(152,23)"/>
<path d="M0 0 C0.33 0.99 0.66 1.98 1 3 C0.01 3.33 -0.98 3.66 -2 4 C-2.309375 4.639375 -2.61875 5.27875 -2.9375 5.9375 C-4.2342338 8.45468915 -5.4221737 8.96886948 -8 10 C-8 10.66 -8 11.32 -8 12 C-9.65 12.66 -11.3 13.32 -13 14 C-11.42491141 10.33620697 -9.15806427 7.70148695 -6.5 4.75 C-5.7059375 3.85796875 -4.911875 2.9659375 -4.09375 2.046875 C-2 0 -2 0 0 0 Z " fill="#EAD988" transform="translate(161,155)"/>
<path d="M0 0 C6.6 0.66 13.2 1.32 20 2 C20 2.66 20 3.32 20 4 C14.06 4 8.12 4 2 4 C1.34 2.68 0.68 1.36 0 0 Z " fill="#E0C967" transform="translate(79,182)"/>
<path d="M0 0 C0 1.65 0 3.3 0 5 C1.65 5 3.3 5 5 5 C5 6.32 5 7.64 5 9 C-1.15234375 9.09765625 -1.15234375 9.09765625 -3 9 C-4 8 -4 8 -4.25 5.625 C-4 3 -4 3 -2.5625 1.1875 C-1 0 -1 0 0 0 Z " fill="#F7F7F8" transform="translate(64,91)"/>
<path d="M0 0 C0.66 0.33 1.32 0.66 2 1 C1.3503125 1.5878125 1.3503125 1.5878125 0.6875 2.1875 C-1.11872612 3.97428906 -1.11872612 3.97428906 -2.3125 6.4375 C-4.412357 9.62617174 -6.71295025 11.11169483 -10 13 C-10.66 13 -11.32 13 -12 13 C-11.71794489 9.5918341 -11.36181777 8.31910317 -8.75 6.015625 C-7.8425 5.43296875 -6.935 4.8503125 -6 4.25 C-5.0925 3.65703125 -4.185 3.0640625 -3.25 2.453125 C-2.13625 1.73382813 -2.13625 1.73382813 -1 1 C-0.67 0.67 -0.34 0.34 0 0 Z " fill="#DBC672" transform="translate(150,163)"/>
<path d="M0 0 C0.33 0 0.66 0 1 0 C1.33 9.9 1.66 19.8 2 30 C-1.28912736 25.61449685 -1.37748314 23.40390167 -1.1875 18.25 C-1.17396484 17.55261719 -1.16042969 16.85523437 -1.14648438 16.13671875 C-1.1112945 14.42414459 -1.05749155 12.71197059 -1 11 C-1.33 11 -1.66 11 -2 11 C-2.25 3.375 -2.25 3.375 0 0 Z " fill="#D2BC60" transform="translate(11,82)"/>
<path d="M0 0 C0.73046875 1.75390625 0.73046875 1.75390625 1 4 C-0.51171875 5.96484375 -0.51171875 5.96484375 -2.6875 7.9375 C-5.74384182 10.80114776 -8.47871046 13.63828061 -11 17 C-11.33 16.01 -11.66 15.02 -12 14 C-10.71488126 11.96868328 -9.38123963 9.96722008 -8 8 C-8 7.34 -8 6.68 -8 6 C-5.36107824 4.21694476 -3.02821137 3.00940379 0 2 C0 1.34 0 0.68 0 0 Z " fill="#D7C163" transform="translate(38,27)"/>
<path d="M0 0 C6 3.33333333 12 6.66666667 18 10 C13.31580186 11.56139938 9.417261 9.96947943 5 8 C2.74710904 6.12591372 1.60485381 4.51427096 0 2 C0 1.34 0 0.68 0 0 Z " fill="#E1CC6C" transform="translate(45,166)"/>
<path d="M0 0 C0.66 0.33 1.32 0.66 2 1 C1.66410006 4.13506611 0.97334828 5.025249 -1.375 7.25 C-4 9 -4 9 -7 9 C-9.17032476 10.43990623 -9.17032476 10.43990623 -11 12 C-9.49650623 8.33213607 -7.36271208 6.31089607 -4.375 3.75 C-3.14910156 2.69039062 -3.14910156 2.69039062 -1.8984375 1.609375 C-1.27195312 1.07828125 -0.64546875 0.5471875 0 0 Z " fill="#E7D281" transform="translate(43,21)"/>
<path d="M0 0 C2 3 2 3 1.828125 5.2265625 C1.63734375 6.01804687 1.4465625 6.80953125 1.25 7.625 C1.06953125 8.42164062 0.8890625 9.21828125 0.703125 10.0390625 C0 12 0 12 -2 13 C-2 12.01 -2 11.02 -2 10 C-3.32 10 -4.64 10 -6 10 C-5.1875 7.0625 -5.1875 7.0625 -4 4 C-3.01 3.67 -2.02 3.34 -1 3 C-0.67 2.01 -0.34 1.02 0 0 Z " fill="#484752" transform="translate(154,86)"/>
<path d="M0 0 C1.65 0.33 3.3 0.66 5 1 C4.34 3.97 3.68 6.94 3 10 C1.35 9.01 -0.3 8.02 -2 7 C-1.34 4.69 -0.68 2.38 0 0 Z " fill="#393844" transform="translate(140,89)"/>
<path d="M0 0 C0.12375 0.639375 0.2475 1.27875 0.375 1.9375 C0.684375 2.9584375 0.684375 2.9584375 1 4 C1.66 4.33 2.32 4.66 3 5 C1.68 8.96 0.36 12.92 -1 17 C-1.33 17 -1.66 17 -2 17 C-3.65985717 11.75834579 -3.65985717 11.75834579 -4 9 C-2.6875 6.8125 -2.6875 6.8125 -1 5 C-0.28566879 2.35065178 -0.28566879 2.35065178 0 0 Z " fill="#3A3945" transform="translate(56,79)"/>
<path d="M0 0 C6.40441176 2.46323529 6.40441176 2.46323529 9.25 4.25 C9.91796875 6.85546875 9.91796875 6.85546875 10.25 9.25 C8.31182687 8.12616008 6.37448482 7.00088679 4.4375 5.875 C2.81908203 4.93527344 2.81908203 4.93527344 1.16796875 3.9765625 C-0.83831093 2.78944654 -2.81034059 1.54310627 -4.75 0.25 C-2.75 -0.75 -2.75 -0.75 0 0 Z " fill="#D2BC5F" transform="translate(133.75,12.75)"/>
<path d="M0 0 C0.33 0 0.66 0 1 0 C-1.38 19.38 -1.38 19.38 -4 22 C-4.62599202 14.17509977 -2.32514129 7.39062767 0 0 Z " fill="#EDDC8A" transform="translate(13,63)"/>
<path d="M0 0 C0.66 0.33 1.32 0.66 2 1 C1.01 1.33 0.02 1.66 -1 2 C-1 2.66 -1 3.32 -1 4 C-6.78357065 6.01167675 -11.90218999 6.22084624 -18 6 C-18 5.67 -18 5.34 -18 5 C-16.95199219 4.72285156 -15.90398437 4.44570312 -14.82421875 4.16015625 C-13.44529933 3.79432048 -12.0663938 3.42843233 -10.6875 3.0625 C-9.65206055 2.78889648 -9.65206055 2.78889648 -8.59570312 2.50976562 C-5.70112156 1.7406739 -2.84215271 0.94738424 0 0 Z " fill="#C5B05C" transform="translate(127,177)"/>
<path d="M0 0 C-3.54039134 2.9156164 -7.1626772 5.50127818 -11 8 C-11.33 7.01 -11.66 6.02 -12 5 C-10.65621857 2.59533849 -9.71004972 1.28401989 -7.125 0.25 C-4.73068929 -0.03168361 -2.40866079 -0.06690724 0 0 Z " fill="#D8C367" transform="translate(56,17)"/>
<path d="M0 0 C4.98599117 0.53800209 8.51835705 2.11744529 12.875 4.5625 C14.02742187 5.20316406 15.17984375 5.84382812 16.3671875 6.50390625 C17.67042969 7.24447266 17.67042969 7.24447266 19 8 C18.01 8.495 18.01 8.495 17 9 C14.93328442 8.10979134 13.03220683 7.0104582 11.0703125 5.91015625 C8.766629 4.73170055 8.766629 4.73170055 5 5 C3.375 3.625 3.375 3.625 2 2 C1.34 1.34 0.68 0.68 0 0 Z " fill="#EEDD8E" transform="translate(124,8)"/>
<path d="M0 0 C1 3 1 3 -0.3125 5.6875 C-0.869375 6.450625 -1.42625 7.21375 -2 8 C-2.66 8 -3.32 8 -4 8 C-3.67 9.32 -3.34 10.64 -3 12 C-3.99 12.33 -4.98 12.66 -6 13 C-6 12.34 -6 11.68 -6 11 C-6.66 10.67 -7.32 10.34 -8 10 C-7.59007812 9.52949219 -7.18015625 9.05898437 -6.7578125 8.57421875 C-6.21898437 7.95160156 -5.68015625 7.32898438 -5.125 6.6875 C-4.59132812 6.07261719 -4.05765625 5.45773438 -3.5078125 4.82421875 C-1.8359553 2.86501788 -1.8359553 2.86501788 0 0 Z " fill="#D3BF60" transform="translate(167,144)"/>
<path d="M0 0 C3.18005028 3.88672813 6.10554447 7.89952133 9 12 C8.01 12 7.02 12 6 12 C4.39453125 10.390625 4.39453125 10.390625 2.8125 8.25 C2.01779297 7.20585937 2.01779297 7.20585937 1.20703125 6.140625 C0 4 0 4 0 0 Z " fill="#D2BB5F" transform="translate(25,143)"/>
<path d="M0 0 C6.24675325 6.07792208 6.24675325 6.07792208 8 9 C7.67 9.99 7.34 10.98 7 12 C6.401875 11.236875 5.80375 10.47375 5.1875 9.6875 C3.1839761 7.08139955 3.1839761 7.08139955 1.25 5.4375 C0 4 0 4 0 0 Z " fill="#DDC562" transform="translate(160,33)"/>
<path d="M0 0 C0 0.66 0 1.32 0 2 C-7.26 1.67 -14.52 1.34 -22 1 C-22 0.67 -22 0.34 -22 0 C-19.27119539 -0.19555932 -16.54228931 -0.38170447 -13.8125 -0.5625 C-13.04357422 -0.61857422 -12.27464844 -0.67464844 -11.48242188 -0.73242188 C-7.45938647 -0.99141557 -3.93927628 -1.06573607 0 0 Z " fill="#CAB45B" transform="translate(113,6)"/>
<path d="M0 0 C0.99 0 1.98 0 3 0 C3.125 2.375 3.125 2.375 3 5 C2.34 5.66 1.68 6.32 1 7 C0.01 7 -0.98 7 -2 7 C-1.125 1.125 -1.125 1.125 0 0 Z " fill="#44434E" transform="translate(48,79)"/>
<path d="M0 0 C0.33 0 0.66 0 1 0 C1.11138159 5.45769811 0.91657981 10.61509359 0 16 C-0.33 16 -0.66 16 -1 16 C-1.22281874 14.08496326 -1.42771076 12.16783494 -1.625 10.25 C-1.74101562 9.18265625 -1.85703125 8.1153125 -1.9765625 7.015625 C-2.00029475 3.96207601 -1.61420985 2.53837579 0 0 Z " fill="#BFAB5A" transform="translate(13,70)"/>
<path d="M0 0 C4.31395349 8.01162791 4.31395349 8.01162791 3.625 12.375 C3.41875 12.91125 3.2125 13.4475 3 14 C2.34 13.67 1.68 13.34 1 13 C0.27111576 8.62669456 -0.13869913 4.4383722 0 0 Z " fill="#EDDA81" transform="translate(179,62)"/>
<path d="M0 0 C-2.96162086 1.62477811 -5.69266927 2.51695886 -9 3.1875 C-9.845625 3.36667969 -10.69125 3.54585937 -11.5625 3.73046875 C-14.03021411 4.00334098 -15.65849506 3.76424119 -18 3 C-5.57142857 -1.92857143 -5.57142857 -1.92857143 0 0 Z " fill="#EFDC8F" transform="translate(81,6)"/>
<path d="M0 0 C0.66 0 1.32 0 2 0 C2.33 0.99 2.66 1.98 3 3 C2.01 3.33 1.02 3.66 0 4 C0 4.66 0 5.32 0 6 C-1.98 6.33 -3.96 6.66 -6 7 C-5.04882866 5.8274869 -4.08882991 4.66212985 -3.125 3.5 C-2.59132812 2.8503125 -2.05765625 2.200625 -1.5078125 1.53125 C-0.76144531 0.77328125 -0.76144531 0.77328125 0 0 Z " fill="#E1CD72" transform="translate(159,155)"/>
<path d="M0 0 C-0.33 2.31 -0.66 4.62 -1 7 C-2.65 7.66 -4.3 8.32 -6 9 C-3.83333333 0 -3.83333333 0 0 0 Z " fill="#D7C26E" transform="translate(177,130)"/>
<path d="M0 0 C0.66 0.33 1.32 0.66 2 1 C1.39294514 5.12797305 0.06000669 8.37438822 -2 12 C-2.99 12.495 -2.99 12.495 -4 13 C-3.52140759 11.39566191 -3.04210442 9.79153584 -2.5625 8.1875 C-2.29566406 7.29417969 -2.02882812 6.40085937 -1.75390625 5.48046875 C-1.19612127 3.64526945 -0.60655425 1.81966274 0 0 Z " fill="#CBB65C" transform="translate(178,119)"/>
<path d="M0 0 C1.125 1.5625 1.125 1.5625 2 4 C1.125 7.75 1.125 7.75 0 11 C-2 11 -4 11 -6 11 C-5.65066406 10.54109375 -5.30132812 10.0821875 -4.94140625 9.609375 C-4.48636719 8.99578125 -4.03132813 8.3821875 -3.5625 7.75 C-3.11003906 7.14671875 -2.65757813 6.5434375 -2.19140625 5.921875 C-0.96099003 3.93707244 -0.43887332 2.28012345 0 0 Z " fill="#5D5C66" transform="translate(126,86)"/>
<path d="M0 0 C2.31 0 4.62 0 7 0 C6.34 1.32 5.68 2.64 5 4 C3.35 4 1.7 4 0 4 C0 2.68 0 1.36 0 0 Z " fill="#393844" transform="translate(25,106)"/>
<path d="M0 0 C1.2065625 0.0309375 1.2065625 0.0309375 2.4375 0.0625 C2.1075 1.3825 1.7775 2.7025 1.4375 4.0625 C0.1175 4.3925 -1.2025 4.7225 -2.5625 5.0625 C-3.125 3.125 -3.125 3.125 -3.5625 1.0625 C-2.5625 0.0625 -2.5625 0.0625 0 0 Z " fill="#474651" transform="translate(106.5625,90.9375)"/>
<path d="M0 0 C5 7.5 5 7.5 5 11 C4.01 11 3.02 11 2 11 C1.47007308 9.54494642 0.9513211 8.08581873 0.4375 6.625 C0.14746094 5.81289062 -0.14257812 5.00078125 -0.44140625 4.1640625 C-1 2 -1 2 0 0 Z " fill="#D0BA5E" transform="translate(17,127)"/>
<path d="M0 0 C3.3 0 6.6 0 10 0 C10.66 1.32 11.32 2.64 12 4 C6.06 2.515 6.06 2.515 0 1 C0 0.67 0 0.34 0 0 Z " fill="#EEDD8F" transform="translate(69,182)"/>
<path d="M0 0 C0.33 0 0.66 0 1 0 C0.67 4.29 0.34 8.58 0 13 C-0.33 13 -0.66 13 -1 13 C-1.22151549 11.20991533 -1.42682213 9.41781838 -1.625 7.625 C-1.74101562 6.62726563 -1.85703125 5.62953125 -1.9765625 4.6015625 C-1.98429688 3.74304688 -1.99203125 2.88453125 -2 2 C-1.34 1.34 -0.68 0.68 0 0 Z " fill="#EED888" transform="translate(184,98)"/>
<path d="M0 0 C0.99 0.33 1.98 0.66 3 1 C3.1875 3.875 3.1875 3.875 3 7 C2.01 7.66 1.02 8.32 0 9 C0 6.03 0 3.06 0 0 Z " fill="#E5CC61" transform="translate(182,91)"/>
<path d="M0 0 C0.99 0 1.98 0 3 0 C2.34 1.98 1.68 3.96 1 6 C0.01 6 -0.98 6 -2 6 C-1.125 1.125 -1.125 1.125 0 0 Z " fill="#3B3A46" transform="translate(132,90)"/>
<path d="M0 0 C2 1 2 1 3.125 3.375 C4 6 4 6 4 9 C4.99 9 5.98 9 7 9 C6.67 9.99 6.34 10.98 6 12 C2.20444669 9.46963112 1.5544614 7.21925236 0 3 C0 2.01 0 1.02 0 0 Z " fill="#EFD887" transform="translate(15,129)"/>
<path d="M0 0 C0.66 0 1.32 0 2 0 C1.46930939 3.82097239 0.50298434 6.06171403 -2 9 C-2.6875 7.3125 -2.6875 7.3125 -3 5 C-1.6875 2.25 -1.6875 2.25 0 0 Z " fill="#D9C160" transform="translate(22,47)"/>
<path d="M0 0 C1.62580966 0.11398665 3.25067157 0.24155659 4.875 0.375 C5.77992187 0.44460937 6.68484375 0.51421875 7.6171875 0.5859375 C10 1 10 1 12 3 C8.37 3 4.74 3 1 3 C0.67 2.01 0.34 1.02 0 0 Z " fill="#ECDA83" transform="translate(112,5)"/>
<path d="M0 0 C1.32 0 2.64 0 4 0 C4 1.65 4 3.3 4 5 C2.68 4.67 1.36 4.34 0 4 C0 2.68 0 1.36 0 0 Z " fill="#EAEAEB" transform="translate(76,80)"/>
<path d="M0 0 C0.33 0.99 0.66 1.98 1 3 C1.66 3 2.32 3 3 3 C3 6.3 3 9.6 3 13 C2.67 13 2.34 13 2 13 C-0.28571429 4.57142857 -0.28571429 4.57142857 0 0 Z " fill="#D4BD5E" transform="translate(179,72)"/>
<path d="M0 0 C2.97 1.65 5.94 3.3 9 5 C7.68 5.33 6.36 5.66 5 6 C2.25 4.1875 2.25 4.1875 0 2 C0 1.34 0 0.68 0 0 Z " fill="#D9C260" transform="translate(45,166)"/>
<path d="M0 0 C0.66 0.33 1.32 0.66 2 1 C1.67 1.99 1.34 2.98 1 4 C-1.31 4.33 -3.62 4.66 -6 5 C-4.00856305 2.01284458 -3.23356015 1.21258505 0 0 Z " fill="#EEDC7C" transform="translate(55,13)"/>
<path d="M0 0 C0.66 0.33 1.32 0.66 2 1 C0.68 3.64 -0.64 6.28 -2 9 C-3.21185923 5.36442231 -2.59260392 4.36216382 -1 1 C-0.67 0.67 -0.34 0.34 0 0 Z " fill="#EEDA85" transform="translate(173,137)"/>
<path d="M0 0 C0.66 0.66 1.32 1.32 2 2 C-1.465 3.485 -1.465 3.485 -5 5 C-4.67 3.68 -4.34 2.36 -4 1 C-2.125 0.375 -2.125 0.375 0 0 Z " fill="#DDC662" transform="translate(61,12)"/>
</svg>
