<?xml version="1.0" encoding="UTF-8"?>
<svg version="1.1" xmlns="http://www.w3.org/2000/svg" width="464" height="436">
<path d="M0 0 C10.65238799 9.4430189 19.97774868 19.37650593 28.44921875 30.7890625 C28.85027832 31.32934082 29.25133789 31.86961914 29.66455078 32.42626953 C48.41009762 57.96835539 60.942321 87.61067467 66.44921875 118.7890625 C66.62582031 119.76117676 66.80242187 120.73329102 66.984375 121.73486328 C68.67121501 132.04717892 68.84784375 142.23517537 68.82421875 152.6640625 C68.82340302 154.02017639 68.82340302 154.02017639 68.8225708 155.40368652 C68.78268226 169.85099767 67.94477463 183.71236448 64.44921875 197.7890625 C64.22427734 198.69978516 63.99933594 199.61050781 63.76757812 200.54882812 C62.20321167 206.69855523 60.41680256 212.75689782 58.44921875 218.7890625 C58.22008789 219.49434082 57.99095703 220.19961914 57.75488281 220.92626953 C48.01154834 250.21990865 30.59428155 275.59784217 9.44921875 297.7890625 C8.72347656 298.56765625 7.99773437 299.34625 7.25 300.1484375 C1.41657 306.22986914 -5.04210086 311.37072082 -11.75537109 316.43359375 C-12.90620724 317.30243279 -14.05279355 318.17694719 -15.19384766 319.05859375 C-38.85520091 337.30977532 -67.47227735 349.39684877 -96.55078125 355.7890625 C-97.48245117 355.99789063 -98.41412109 356.20671875 -99.37402344 356.421875 C-153.95857749 368.08823894 -213.80717161 356.61787925 -260.58935547 326.47558594 C-281.21496923 312.68335043 -299.76796017 295.70411626 -314.55078125 275.7890625 C-315.15237061 274.97864502 -315.15237061 274.97864502 -315.76611328 274.15185547 C-334.51166012 248.60976961 -347.0438835 218.96745033 -352.55078125 187.7890625 C-352.81568359 186.33089111 -352.81568359 186.33089111 -353.0859375 184.84326172 C-354.77277751 174.53094608 -354.94940625 164.34294963 -354.92578125 153.9140625 C-354.92523743 153.00998657 -354.9246936 152.10591064 -354.9241333 151.17443848 C-354.88424476 136.72712733 -354.04633713 122.86576052 -350.55078125 108.7890625 C-350.32583984 107.87833984 -350.10089844 106.96761719 -349.86914062 106.02929688 C-348.30477417 99.87956977 -346.51836506 93.82122718 -344.55078125 87.7890625 C-344.32165039 87.08378418 -344.09251953 86.37850586 -343.85644531 85.65185547 C-334.11311084 56.35821635 -316.69584405 30.98028283 -295.55078125 8.7890625 C-294.82503906 8.01046875 -294.09929687 7.231875 -293.3515625 6.4296875 C-287.5181325 0.34825586 -281.05946164 -4.79259582 -274.34619141 -9.85546875 C-273.19535526 -10.72430779 -272.04876895 -11.59882219 -270.90771484 -12.48046875 C-247.24636159 -30.73165032 -218.62928515 -42.81872377 -189.55078125 -49.2109375 C-188.61911133 -49.41976562 -187.68744141 -49.62859375 -186.72753906 -49.84375 C-120.32022747 -64.03699347 -50.81615773 -44.045858 0 0 Z " fill="#22212F" transform="translate(376.55078125,62.2109375)"/>
<path d="M0 0 C10.65238799 9.4430189 19.97774868 19.37650593 28.44921875 30.7890625 C28.85027832 31.32934082 29.25133789 31.86961914 29.66455078 32.42626953 C48.41009762 57.96835539 60.942321 87.61067467 66.44921875 118.7890625 C66.62582031 119.76117676 66.80242187 120.73329102 66.984375 121.73486328 C68.67121501 132.04717892 68.84784375 142.23517537 68.82421875 152.6640625 C68.82340302 154.02017639 68.82340302 154.02017639 68.8225708 155.40368652 C68.78268226 169.85099767 67.94477463 183.71236448 64.44921875 197.7890625 C64.22427734 198.69978516 63.99933594 199.61050781 63.76757812 200.54882812 C62.20321167 206.69855523 60.41680256 212.75689782 58.44921875 218.7890625 C58.22008789 219.49434082 57.99095703 220.19961914 57.75488281 220.92626953 C48.01154834 250.21990865 30.59428155 275.59784217 9.44921875 297.7890625 C8.72347656 298.56765625 7.99773437 299.34625 7.25 300.1484375 C1.41657 306.22986914 -5.04210086 311.37072082 -11.75537109 316.43359375 C-12.90620724 317.30243279 -14.05279355 318.17694719 -15.19384766 319.05859375 C-38.85520091 337.30977532 -67.47227735 349.39684877 -96.55078125 355.7890625 C-97.48245117 355.99789063 -98.41412109 356.20671875 -99.37402344 356.421875 C-153.95857749 368.08823894 -213.80717161 356.61787925 -260.58935547 326.47558594 C-281.21496923 312.68335043 -299.76796017 295.70411626 -314.55078125 275.7890625 C-315.15237061 274.97864502 -315.15237061 274.97864502 -315.76611328 274.15185547 C-334.51166012 248.60976961 -347.0438835 218.96745033 -352.55078125 187.7890625 C-352.81568359 186.33089111 -352.81568359 186.33089111 -353.0859375 184.84326172 C-354.77277751 174.53094608 -354.94940625 164.34294963 -354.92578125 153.9140625 C-354.92523743 153.00998657 -354.9246936 152.10591064 -354.9241333 151.17443848 C-354.88424476 136.72712733 -354.04633713 122.86576052 -350.55078125 108.7890625 C-350.32583984 107.87833984 -350.10089844 106.96761719 -349.86914062 106.02929688 C-348.30477417 99.87956977 -346.51836506 93.82122718 -344.55078125 87.7890625 C-344.32165039 87.08378418 -344.09251953 86.37850586 -343.85644531 85.65185547 C-334.11311084 56.35821635 -316.69584405 30.98028283 -295.55078125 8.7890625 C-294.82503906 8.01046875 -294.09929687 7.231875 -293.3515625 6.4296875 C-287.5181325 0.34825586 -281.05946164 -4.79259582 -274.34619141 -9.85546875 C-273.19535526 -10.72430779 -272.04876895 -11.59882219 -270.90771484 -12.48046875 C-247.24636159 -30.73165032 -218.62928515 -42.81872377 -189.55078125 -49.2109375 C-188.61911133 -49.41976562 -187.68744141 -49.62859375 -186.72753906 -49.84375 C-120.32022747 -64.03699347 -50.81615773 -44.045858 0 0 Z M-289.55078125 12.7890625 C-290.329375 13.51480469 -291.10796875 14.24054688 -291.91015625 14.98828125 C-298.52928167 21.33747779 -304.0570715 28.47143234 -309.55078125 35.7890625 C-310.17855469 36.62179688 -310.80632812 37.45453125 -311.453125 38.3125 C-342.59540286 81.25220548 -353.67304723 133.57795172 -346.05126953 185.68505859 C-337.83100169 236.66675874 -309.05383874 283.18129139 -267.55078125 313.7890625 C-266.48988281 314.57152344 -265.42898438 315.35398437 -264.3359375 316.16015625 C-256.09698328 322.03639431 -247.4990215 327.07912541 -238.55078125 331.7890625 C-237.91253418 332.1279248 -237.27428711 332.46678711 -236.61669922 332.81591797 C-217.33895339 342.8950456 -196.01696051 349.4905549 -174.55078125 352.7890625 C-173.85436523 352.90330566 -173.15794922 353.01754883 -172.44042969 353.13525391 C-120.7694746 361.42766824 -64.94217628 346.92958769 -22.55078125 316.7890625 C-13.3210082 310.08103347 -4.80797968 302.65070651 3.44921875 294.7890625 C4.1040625 294.17546875 4.75890625 293.561875 5.43359375 292.9296875 C37.69053588 261.85648637 55.98182985 218.63708586 61.44921875 174.7890625 C61.58070313 173.77585938 61.7121875 172.76265625 61.84765625 171.71875 C67.35889702 119.43643893 49.57953058 68.07832267 16.8984375 27.6171875 C6.38414965 14.79098832 -5.18698312 3.61156861 -18.55078125 -6.2109375 C-19.61039062 -6.99210937 -20.67 -7.77328125 -21.76171875 -8.578125 C-29.99902448 -14.45610366 -38.59777106 -19.50954636 -47.55078125 -24.2109375 C-48.20498047 -24.55511719 -48.85917969 -24.89929688 -49.53320312 -25.25390625 C-69.66428125 -35.66859681 -91.25746158 -41.58836991 -113.55078125 -45.2109375 C-114.35676758 -45.34226074 -115.16275391 -45.47358398 -115.99316406 -45.60888672 C-179.64852878 -55.44553064 -243.66304036 -30.93539917 -289.55078125 12.7890625 Z " fill="#E4CD6E" transform="translate(376.55078125,62.2109375)"/>
<path d="M0 0 C1.98612291 0.00096472 3.97211106 -0.0417305 5.95776367 -0.08496094 C13.3814551 -0.10004208 19.27053957 0.16452632 24.82299805 5.50097656 C27.94141483 10.17860173 27.41051631 15.02472605 26.82299805 20.50097656 C24.67038086 24.96566406 21.90248597 27.70974798 17.82299805 30.50097656 C17.16299805 30.50097656 16.50299805 30.50097656 15.82299805 30.50097656 C16.24452148 30.97148437 16.66604492 31.44199219 17.1003418 31.92675781 C17.64819336 32.549375 18.19604492 33.17199219 18.76049805 33.81347656 C19.30577148 34.42835938 19.85104492 35.04324219 20.4128418 35.67675781 C23.3734659 39.50670645 23.38543672 43.86866915 22.82299805 48.50097656 C20.48802939 56.7368171 16.8437365 62.92326108 9.32299805 67.31347656 C3.29850636 70.59088489 -2.29182243 70.6364605 -8.98950195 70.56347656 C-10.17189453 70.55670898 -10.17189453 70.55670898 -11.37817383 70.54980469 C-13.31114956 70.53808968 -15.24408588 70.52015655 -17.17700195 70.50097656 C-17.44899414 71.39558594 -17.72098633 72.29019531 -18.0012207 73.21191406 C-20.34176695 79.75922283 -24.29351756 85.67671171 -30.17700195 89.50097656 C-31.00200195 90.07847656 -31.82700195 90.65597656 -32.67700195 91.25097656 C-39.23184882 93.5919933 -46.41043084 93.81145762 -52.73950195 90.81347656 C-57.01049512 86.76150869 -60.28005769 83.37966918 -60.55200195 77.37597656 C-60.46824378 72.17459384 -58.93179029 68.15407271 -55.17700195 64.50097656 C-48.6092558 60.50606947 -43.28353172 59.86078211 -35.67700195 59.75097656 C-34.66379883 59.72132813 -33.6505957 59.69167969 -32.60668945 59.66113281 C-30.13004995 59.59103924 -27.65431844 59.53804683 -25.17700195 59.50097656 C-24.94118912 58.91659821 -24.70537628 58.33221985 -24.4624176 57.73013306 C-22.01402006 51.66311355 -19.56447624 45.59655779 -17.11425781 39.53027344 C-16.19924819 37.26444246 -15.28453366 34.99849229 -14.37011719 32.73242188 C-13.05781872 29.48048225 -11.74446923 26.22896887 -10.4309082 22.97753906 C-10.02046768 21.95979401 -9.61002716 20.94204895 -9.18714905 19.89346313 C-8.80683029 18.95263885 -8.42651154 18.01181458 -8.03466797 17.04248047 C-7.69935562 16.21197174 -7.36404327 15.38146301 -7.01856995 14.52578735 C-6.45232558 13.16340462 -5.83680789 11.82058844 -5.17700195 10.50097656 C-5.81508789 10.51257813 -6.45317383 10.52417969 -7.1105957 10.53613281 C-7.93688477 10.54515625 -8.76317383 10.55417969 -9.61450195 10.56347656 C-10.85006836 10.58087891 -10.85006836 10.58087891 -12.1105957 10.59863281 C-14.17700195 10.50097656 -14.17700195 10.50097656 -15.17700195 9.50097656 C-15.63890884 4.18904741 -15.63890884 4.18904741 -14.05859375 1.83496094 C-10.12534614 -0.9535774 -4.65301711 -0.01594084 0 0 Z " fill="#F9F9FA" transform="translate(108.177001953125,169.4990234375)"/>
<path d="M0 0 C2.64 0 5.28 0 8 0 C8 101.64 8 203.28 8 308 C5.36 308 2.72 308 0 308 C0 206.36 0 104.72 0 0 Z " fill="#FFFFFF" transform="translate(222,104)"/>
<path d="M0 0 C2.64 0 5.28 0 8 0 C8 101.64 8 203.28 8 308 C5.36 308 2.72 308 0 308 C0 206.36 0 104.72 0 0 Z " fill="#FFFFFF" transform="translate(202,104)"/>
<path d="M0 0 C2.296875 1.03125 2.296875 1.03125 4 2 C4.66 1.34 5.32 0.68 6 0 C9.625 0.375 9.625 0.375 13 1 C13.34035816 6.5095477 12.31361461 10.51325268 10 15.4375 C9.71382813 16.07365234 9.42765625 16.70980469 9.1328125 17.36523438 C8.43347155 18.91544015 7.71836143 20.45851611 7 22 C8.11375 22.12375 9.2275 22.2475 10.375 22.375 C14 23 14 23 16 25 C16.35015137 27.73118066 16.45616471 29.32539021 14.890625 31.640625 C12.09860998 33.64810687 9.83225293 33.36180926 6.4375 33.3125 C4.70306641 33.30669922 4.70306641 33.30669922 2.93359375 33.30078125 C0 33 0 33 -2 31 C-2.99 31.66 -3.98 32.32 -5 33 C-10.71505641 33.77340507 -15.46898998 34.14075256 -20.1875 30.625 C-23.7061631 25.52900516 -23.69312145 21.09302114 -23 15 C-21.02458861 9.05530403 -17.40433826 4.55543854 -12.25390625 1.02734375 C-8.25914561 -0.79349169 -4.27528031 -0.75617203 0 0 Z " fill="#F9F9F9" transform="translate(327,195)"/>
<path d="M0 0 C3.81978202 1.77347022 5.48336877 3.25949523 7.875 6.6875 C9.84550585 12.489545 9.91824912 17.61015885 7.375 23.25 C4.90044162 27.67769195 1.56394501 30.71802749 -3 33 C-5.45693908 33.20353342 -7.85242653 33.32340647 -10.3125 33.375 C-11.62863281 33.42398438 -12.94476563 33.47296875 -14.30078125 33.5234375 C-18.85981896 32.87833607 -20.1584329 31.52996132 -23 28 C-25.99478491 23.50782263 -25.70475537 19.26409112 -25 14 C-22.62675928 8.07670497 -18.63241141 4.15601193 -13.18359375 0.921875 C-8.96694351 -0.85832081 -4.48001 -0.51942145 0 0 Z " fill="#F8F8F8" transform="translate(264,195)"/>
<path d="M0 0 C3.17067126 1.42245868 5.16416158 3.04091834 7 6 C7.80330449 9.17974692 7.75681526 11.81433577 7 15 C5.20606332 17.87029869 4.01736724 19.49131638 1 21 C-1.204364 21.22950319 -3.41392173 21.41075933 -5.625 21.5625 C-6.81351562 21.64628906 -8.00203125 21.73007813 -9.2265625 21.81640625 C-10.14179688 21.87699219 -11.05703125 21.93757813 -12 22 C-11.43490723 22.01981934 -10.86981445 22.03963867 -10.28759766 22.06005859 C-7.73292003 22.15518236 -5.17907459 22.26491058 -2.625 22.375 C-1.73554688 22.4059375 -0.84609375 22.436875 0.0703125 22.46875 C0.92109375 22.50742188 1.771875 22.54609375 2.6484375 22.5859375 C3.43395996 22.6173584 4.21948242 22.6487793 5.02880859 22.68115234 C7 23 7 23 9 25 C9.35746533 27.78822956 9.49243597 29.33737594 7.78637695 31.63305664 C4.24392014 34.34375989 -0.52645839 33.46797606 -4.8125 33.4375 C-5.79798828 33.45748047 -6.78347656 33.47746094 -7.79882812 33.49804688 C-13.66304237 33.49410852 -17.48330966 33.13848116 -22 29 C-25.10549784 24.57129004 -24.69460895 19.17018205 -24 14 C-19.8152611 3.33160984 -11.15205089 -1.56251262 0 0 Z " fill="#FAFAFA" transform="translate(395,195)"/>
<path d="M0 0 C0.804375 0.12375 1.60875 0.2475 2.4375 0.375 C4.4375 3.375 4.4375 3.375 4.4375 6.375 C6.13519531 6.35759766 6.13519531 6.35759766 7.8671875 6.33984375 C9.34895669 6.33046546 10.83072765 6.3213653 12.3125 6.3125 C13.05886719 6.30412109 13.80523437 6.29574219 14.57421875 6.28710938 C20.2109375 6.26171875 20.2109375 6.26171875 22.4375 7.375 C22.4375 9.685 22.4375 11.995 22.4375 14.375 C21.91800781 14.59414062 21.39851563 14.81328125 20.86328125 15.0390625 C15.71554704 17.37980671 12.53044005 19.58593154 9.4375 24.375 C9.75096061 26.52711048 9.75096061 26.52711048 10.4375 28.375 C11.20835937 28.42398438 11.97921875 28.47296875 12.7734375 28.5234375 C13.77632812 28.59820312 14.77921875 28.67296875 15.8125 28.75 C17.30910156 28.85441406 17.30910156 28.85441406 18.8359375 28.9609375 C21.4375 29.375 21.4375 29.375 23.4375 31.375 C23.8125 33.8125 23.8125 33.8125 23.4375 36.375 C20.94006693 39.03850279 19.38968551 39.38103337 15.72265625 39.84375 C14.31531376 39.87017897 12.90758127 39.88013248 11.5 39.875 C10.44522461 39.91753906 10.44522461 39.91753906 9.36914062 39.9609375 C5.35359129 39.97599111 3.63600368 39.53738813 0.49609375 36.96875 C-2.73791664 32.89401964 -3.06898576 30.60868622 -2.5625 25.375 C-1.13943865 22.52390156 0.56517195 19.94945107 2.4375 17.375 C1.7775 17.375 1.1175 17.375 0.4375 17.375 C0.086875 18.344375 -0.26375 19.31375 -0.625 20.3125 C-2.5625 23.375 -2.5625 23.375 -6.1875 24.3125 C-7.30125 24.333125 -8.415 24.35375 -9.5625 24.375 C-10.5625 23.375 -10.5625 23.375 -10.9375 20.625 C-10.87125658 14.26563195 -8.03632142 6.43843688 -4.0546875 1.5078125 C-2.5625 0.375 -2.5625 0.375 0 0 Z " fill="#F8F8F8" transform="translate(145.5625,188.625)"/>
<path d="M0 0 C2.875 0.5 2.875 0.5 4.875 2.5 C4.33152174 8.58695652 4.33152174 8.58695652 2.875 11.5 C3.679375 11.644375 4.48375 11.78875 5.3125 11.9375 C7.875 12.5 7.875 12.5 8.875 13.5 C9.16034319 16.21076028 9.24581965 17.88923823 7.8125 20.25 C5.875 21.5 5.875 21.5 2.5 21.5 C-1.26713402 22.09957428 -1.26713402 22.09957428 -2.69140625 25.00390625 C-3.94768149 27.80636639 -5.09132135 30.60855786 -6.125 33.5 C-3.155 34.16 -0.185 34.82 2.875 35.5 C3.23522253 40.90333797 3.23522253 40.90333797 1.86328125 43.17578125 C-1.25249476 45.2509248 -4.51161791 44.93286555 -8.125 44.875 C-8.84945313 44.88660156 -9.57390625 44.89820313 -10.3203125 44.91015625 C-13.33279235 44.89348201 -15.56324474 44.86755471 -18.125 43.19140625 C-19.56071282 40.76303261 -19.22590381 38.68300046 -18.78515625 35.97265625 C-17.44358463 30.94771641 -15.26131984 26.22985942 -13.125 21.5 C-14.445 21.17 -15.765 20.84 -17.125 20.5 C-17.875 18.25 -17.875 18.25 -18.125 15.5 C-16.5625 13.1875 -16.5625 13.1875 -14.125 11.5 C-10.875 11.25 -10.875 11.25 -8.125 11.5 C-8.0425 10.79875 -7.96 10.0975 -7.875 9.375 C-6.62086766 4.56749271 -5.19447871 0.83111659 0 0 Z " fill="#F8F8F8" transform="translate(364.125,183.5)"/>
<path d="M0 0 C1 1 1 1 1.09765625 4.16015625 C1.08605469 5.44792969 1.07445312 6.73570312 1.0625 8.0625 C1.05347656 9.35285156 1.04445313 10.64320313 1.03515625 11.97265625 C1.02355469 12.97167969 1.01195312 13.97070312 1 15 C1.69867188 14.08476562 2.39734375 13.16953125 3.1171875 12.2265625 C4.03638138 11.02598274 4.95565644 9.82546514 5.875 8.625 C6.33519531 8.02171875 6.79539062 7.4184375 7.26953125 6.796875 C9.09372941 4.41748609 10.87741212 2.12258788 13 0 C16.625 0.375 16.625 0.375 20 1 C20.734375 3.16015625 20.734375 3.16015625 21 6 C19.515625 8.62109375 19.515625 8.62109375 17.25 11.4375 C16.84966553 11.94321533 16.44933105 12.44893066 16.03686523 12.9699707 C15.16772077 14.06609451 14.29236045 15.15731144 13.41162109 16.24414062 C11.92196446 18.09706531 10.46820402 19.97426426 9.01953125 21.859375 C8.0342976 23.13575907 7.04862848 24.41180714 6.0625 25.6875 C5.35432129 26.60583618 5.35432129 26.60583618 4.63183594 27.54272461 C1.2300784 31.8849608 1.2300784 31.8849608 -1 33 C-6.39478261 33.45913043 -6.39478261 33.45913043 -8.8125 31.625 C-13.02199386 25.86463999 -10.93648752 17.35755717 -10.1875 10.625 C-10.11748779 9.92294434 -10.04747559 9.22088867 -9.9753418 8.49755859 C-9.62728843 5.62499054 -9.30423172 3.43264681 -7.62109375 1.0390625 C-5.1048865 -0.5737354 -2.9028511 -0.25242183 0 0 Z " fill="#F5F5F6" transform="translate(286,195)"/>
<path d="M0 0 C0.66 0.66 1.32 1.32 2 2 C1.86441269 9.321715 -1.01995146 15.40210656 -4 22 C-2.88625 22.12375 -1.7725 22.2475 -0.625 22.375 C3 23 3 23 5 25 C5.34360727 27.68013667 5.42793592 29.31300708 3.98046875 31.63671875 C0.88215581 33.76948249 -2.37521373 33.43304818 -6 33.375 C-6.72445312 33.38660156 -7.44890625 33.39820313 -8.1953125 33.41015625 C-13.47997823 33.38090533 -13.47997823 33.38090533 -15.73486328 31.72924805 C-17.77226838 28.94442746 -17.05934151 26.80094041 -16.56933594 23.52294922 C-15.58373268 19.15535744 -13.91562842 15.15398968 -12.125 11.0625 C-11.77308594 10.21365234 -11.42117187 9.36480469 -11.05859375 8.49023438 C-8.61748227 2.78674529 -6.93395309 -0.71117468 0 0 Z " fill="#F8F8F8" transform="translate(188,195)"/>
<path d="M0 0 C1.79356554 0.01168447 3.58693086 0.10920715 5.375 0.25 C6.84066406 0.35054687 6.84066406 0.35054687 8.3359375 0.453125 C11.28742322 1.05900183 12.28630253 1.55429268 14 4 C14.79801355 9.88534993 13.89807533 13.45441574 10.46484375 18.3046875 C6.58474816 22.79525146 2.25758717 23.18447224 -3.375 23.6875 C-5.24928728 23.8037879 -7.12417287 23.91197575 -9 24 C-3.234375 3.234375 -3.234375 3.234375 0 0 Z " fill="#252432" transform="translate(105,206)"/>
<path d="M0 0 C1.0528418 0.01353516 1.0528418 0.01353516 2.12695312 0.02734375 C3.85561525 0.05086296 5.58410145 0.08673287 7.3125 0.125 C4.73418377 5.28163245 2.72843275 8.57632576 -2.6875 11.125 C-6.4375 11.0625 -6.4375 11.0625 -9.6875 10.125 C-11.6875 7.125 -11.6875 7.125 -11.5 4.5625 C-9.65664597 -0.96756208 -4.88250931 -0.11852964 0 0 Z " fill="#2B2A37" transform="translate(71.6875,239.875)"/>
<path d="M0 0 C2.64 0.33 5.28 0.66 8 1 C8.96813148 4.69650201 9.14117309 6.61363154 7.8125 10.25 C5.9174406 13.12526254 5.2635064 14.09347044 2 15 C-0.33203812 15.0777346 -2.66839059 15.08967728 -5 15 C-4.37321829 11.33827525 -3.35548154 8.1181005 -1.9375 4.6875 C-1.39416016 3.36298828 -1.39416016 3.36298828 -0.83984375 2.01171875 C-0.56269531 1.34785156 -0.28554687 0.68398437 0 0 Z " fill="#282734" transform="translate(115,180)"/>
<path d="M0 0 C-0.7923674 9.34993532 -0.7923674 9.34993532 -4 13 C-7.0625 13.9375 -7.0625 13.9375 -10 14 C-10.66 13.34 -11.32 12.68 -12 12 C-11.80069497 6.71841658 -10.67791474 3.7893667 -7 0 C-4.3333581 -1.33332095 -2.83319697 -0.67102033 0 0 Z " fill="#2D2C38" transform="translate(326,204)"/>
<path d="M0 0 C2.75 0.875 2.75 0.875 3.75 1.875 C4.11395977 5.73297355 4.31007535 8.03488698 2.125 11.3125 C-0.90009912 13.30269679 -2.69399109 13.33882725 -6.25 12.875 C-8.25 10.875 -8.25 10.875 -8.6875 8.0625 C-8.25 4.875 -8.25 4.875 -6.125 1.9375 C-3.25 -0.125 -3.25 -0.125 0 0 Z " fill="#2A2936" transform="translate(258.25,205.125)"/>
<path d="M0 0 C3.0625 0.3125 3.0625 0.3125 4.9375 1.4375 C6.59104531 4.19340884 6.45615568 6.16325452 6.0625 9.3125 C4.9375 11.1875 4.9375 11.1875 3.0625 12.3125 C0.0625 12.75 0.0625 12.75 -2.9375 12.3125 C-4.875 10.6875 -4.875 10.6875 -5.9375 8.3125 C-5.64908355 3.50555913 -5.26034464 0.55961113 0 0 Z " fill="#F2F2F3" transform="translate(187.9375,180.6875)"/>
<path d="M0 0 C0.66 0.33 1.32 0.66 2 1 C-6.58 9.58 -15.16 18.16 -24 27 C-24.66 26.67 -25.32 26.34 -26 26 C-8.78465347 6.98267327 -8.78465347 6.98267327 0 0 Z " fill="#F0E09B" transform="translate(96,57)"/>
<path d="M0 0 C1.65 0.33 3.3 0.66 5 1 C5 1.66 5 2.32 5 3 C2.29120665 4.35439668 -0.00933268 4.06501451 -3 4 C-2.01 2.68 -1.02 1.36 0 0 Z " fill="#31303C" transform="translate(387,204)"/>
</svg>
